<svg width="24" height="24" viewBox="0 0 24 24" fill="none" xmlns="http://www.w3.org/2000/svg">
<g id="eva:arrow-up-fill">
<g id="evaArrowUpFill0">
<g id="evaArrowUpFill1">
<path id="evaArrowUpFill2" d="M16.2099 15.9999H7.78995C7.45753 16.0004 7.13178 15.9068 6.85039 15.7298C6.56901 15.5528 6.34349 15.2998 6.19995 14.9999C6.03191 14.6442 5.9672 14.2484 6.01316 13.8577C6.05913 13.4669 6.21394 13.097 6.45995 12.7899L10.6699 7.68995C10.8352 7.49932 11.0394 7.34643 11.2689 7.24165C11.4984 7.13687 11.7477 7.08264 11.9999 7.08264C12.2522 7.08264 12.5015 7.13687 12.731 7.24165C12.9605 7.34643 13.1647 7.49932 13.3299 7.68995L17.5399 12.7899C17.786 13.097 17.9408 13.4669 17.9867 13.8577C18.0327 14.2484 17.968 14.6442 17.7999 14.9999C17.6564 15.2998 17.4309 15.5528 17.1495 15.7298C16.8681 15.9068 16.5424 16.0004 16.2099 15.9999Z" fill="url(#paint0_linear_184_403)"/>
</g>
</g>
</g>
<defs>
<linearGradient id="paint0_linear_184_403" x1="5.99878" y1="7.08264" x2="14.5365" y2="18.574" gradientUnits="userSpaceOnUse">
<stop stop-color="#0FB900"/>
<stop offset="1" stop-color="#78CD71"/>
</linearGradient>
</defs>
</svg>
